{"title":"Hearts in Atlantis 2001 DVDrip English Klam","uid":11728744,"size":1861237376,"categoryP":"video","categoryS":"movies","magnet":"?xt=urn:btih:6754adaaa49f832c413d6c850acb9c6e7cd3a631&amp;dn=Hearts+in+Atlantis+2001+DVDrip+English+Klam&amp;tr=udp%3A%2F%2Ftracker.openbittorrent.com%3A80&amp;tr=udp%3A%2F%2Fopen.demonii.com%3A1337&amp;tr=udp%3A%2F%2Ftracker.coppersurfer.tk%3A6969&amp;tr=udp%3A%2F%2Fexodus.desync.com%3A6969","seeders":2,"leechers":0,"uploader":"Klambake","files":6,"time":1425204623,"description":" &lt;a href=&quot;http://i.imgur.com/0mMHbDs.jpg&quot; rel=&quot;nofollow&quot; target=&quot;_NEW&quot;&gt;http://i.imgur.com/0mMHbDs.jpg&lt;/a&gt;\n\nWith: Anthony Hopkins, Anton Yelchin and Hope Davis\n\nNadat Bobby de begrafenis van een jeugdvriend heeft bijgewoond bezoekt hij het huis waar hij als kind gewoond heeft. Hij wordt overspoeld met herinneringen aan deze tijd, waarin hij en zijn alleenstaande moeder een mysterieuze nieuwe huurder kregen, met wie hij bevriend raakte. Naar een boek van Stephen King.\n\nA widowed mother and her son change when a mysterious stranger enters their lives.\n &lt;a href=&quot;\nhttp://www.imdb.com/title/tt0252501&quot; rel=&quot;nofollow&quot; target=&quot;_NEW&quot;&gt;\nhttp://www.imdb.com/title/tt0252501&lt;/a&gt;\t\n\n--------------------- Dutch Friends 4ever ---------------------\n---------------------------------------------------------------\n- Bezoek ook eens mijn vrienden op: &lt;a href=&quot; http://www.Film-Test.nl&quot; rel=&quot;nofollow&quot; target=&quot;_NEW&quot;&gt; http://www.Film-Test.nl&lt;/a&gt; --\n----- voor mijn Nederlandse Sync. ondertitels ---- en meer ----\n------- http://www.Film-Test.nl ---- Over Films en meer -------\n---------------------------------------------------------------\n &lt;a href=&quot;\nhttp://i.imgur.com/S245WQj.jpg&quot; rel=&quot;nofollow&quot; target=&quot;_NEW&quot;&gt;\nhttp://i.imgur.com/S245WQj.jpg&lt;/a&gt; &lt;a href=&quot;\nhttp://i.imgur.com/0Oh4tVN.jpg&quot; rel=&quot;nofollow&quot; target=&quot;_NEW&quot;&gt;\nhttp://i.imgur.com/0Oh4tVN.jpg&lt;/a&gt; &lt;a href=&quot;\nhttp://i.imgur.com/SKsvevs.jpg&quot; rel=&quot;nofollow&quot; target=&quot;_NEW&quot;&gt;\nhttp://i.imgur.com/SKsvevs.jpg&lt;/a&gt;\n\nGeneral:\n\nComplete name                            : Hearts in AtlantisHearts in Atlantis.avi\nFormat                                   : AVI\nFormat/Info                              : Audio Video Interleave\nFile size                                : 1.73 GiB\nDuration                                 : 1h 36mn\nOverall bit rate                         : 2 559 Kbps\n\nVideo:\n\nFormat                                   : MPEG-4 Visual\nFormat profile                           : Simple@L3\nFormat settings, BVOP                    : No\nFormat settings, QPel                    : No\nFormat settings, GMC                     : No warppoints\nFormat settings, Matrix                  : Default (H.263)\nCodec ID                                 : XVID\nCodec ID/Hint                            : XviD\nDuration                                 : 1h 36mn\nSource duration                          : 1h 36mn\nBit rate                                 : 2 164 Kbps\nWidth                                    : 720 pixels\nHeight                                   : 304 pixels\nDisplay aspect ratio                     : 2.35:1\nFrame rate                               : 25.000 fps\nColor space                              : YUV\nChroma subsampling                       : 4:2:0\nBit depth                                : 8 bits\nScan type                                : Progressive\nCompression mode                         : Lossy\nBits/(Pixel*Frame)                       : 0.396\nStream size                              : 1.46 GiB (85%)\nWriting library                          : XviD 1.1.2 (UTC 2006-11-01)\n\nAudio:\n\nFormat                                   : AC-3\nFormat/Info                              : Audio Coding 3\nMode extension                           : CM (complete main)\nFormat settings, Endianness              : Big\nCodec ID                                 : 2000\nDuration                                 : 1h 36mn\nBit rate mode                            : Constant\nBit rate                                 : 384 Kbps\nChannel(s)                               : 6 channels\nChannel positions                        : Front: L C R, Side: L R, LFE\nSampling rate                            : 48.0 KHz\nBit depth                                : 16 bits\nCompression mode                         : Lossy\nStream size                              : 266 MiB (15%)\nAlignment                                : Aligned on interleaves\nInterleave, duration                     : 32 ms (0.80 video frame)\nInterleave, preload duration             : 32 ms","torrent":{"xt":"urn:btih:6754adaaa49f832c413d6c850acb9c6e7cd3a631","amp;dn":"Hearts+in+Atlantis+2001+DVDrip+English+Klam","amp;tr":["udp%3A%2F%2Ftracker.openbittorrent.com%3A80","udp%3A%2F%2Fopen.demonii.com%3A1337","udp%3A%2F%2Ftracker.coppersurfer.tk%3A6969","udp%3A%2F%2Fexodus.desync.com%3A6969"],"infoHash":"6754adaaa49f832c413d6c850acb9c6e7cd3a631","infoHashBuffer":{"type":"Buffer","data":[103,84,173,170,164,159,131,44,65,61,108,133,10,203,156,110,124,211,166,49]},"announce":[],"urlList":[]}}